<svg height="332" width="400" xmlns="http://www.w3.org/2000/svg" xmlns:xlink="http://www.w3.org/1999/xlink"><linearGradient id="a"><stop offset="0" stop-color="#fff"/><stop offset=".4107143" stop-color="#fff"/><stop offset="1" stop-color="#9cf"/></linearGradient><linearGradient id="b"><stop offset="0" stop-color="#fff"/><stop offset=".16932398" stop-color="#fff"/><stop offset=".36134845" stop-color="#edc"/><stop offset=".6173811" stop-color="#9cf"/><stop offset="1" stop-color="#9cf"/></linearGradient><mask id="c"><path d="m281.5 87.25c-118.3827 94.20514-216.517107 193.74684-269.8125 304.5h3.3125s6.5-9.5 11.25-13.5 19.25-13.75 19.25-13.75 12.482756-37.87794 38.292154-74.64749c25.809396-36.76956 61.871846-71.77134 69.296466-79.54952 7.42462-7.77817 23.03638-24.55299 23.03638-24.55299" fill="#fff" fill-rule="evenodd" stroke="#fff" stroke-width="1.25"/></mask><mask id="d"><path d="m58.75 323c52.74374-25.35972 85.01705-51.53157 106.5-76.75-23.16208-16.57016-16.35679-15.27745 4.5-7.25 9.81312 3.77692 26.75 4 45.75-28 14.58614-24.56613 27.5-35 27.5-35-16.42037 1.83647-45.03297-3.33251 4.25-8.625 21.18972-26.02629 47.60573-48.5684 72.5-72.125-48.10097 19.60374-30.94199-1.276363 8.875-7.625001 26.56651-36.341988 75.36969-55.870888 129-71.75-37.0127 1.310703-77.56038-.163738-93.5 17.75l.25-8.625c-35.96429 8.944797-120.91456 39.797852-123.25159 46.533289-1.79531 5.174178-7.70271 16.731254-10.69499 27.665553-.9295-6.637109-.72035-13.957413.70711-22.008699-25.08201 11.376989-71.42469 46.024148-73.45072 54.270448-1.17198 4.77015-4.21779 41.11625-1.59099 57.27565-8.65822-13.41931-9.85144-30.2318-11.38693-46.88872-8.81853 8.95956-45.05008 23.53873-38.28732 93.91132-7.49114-8.30429-6.00329-21.59691-8.13173-32.88047-24.01226 30.60598-45.19374 75.98902-44.28784 121.12163" fill="#fff" fill-rule="evenodd" stroke="#fff" stroke-linejoin="round" stroke-width=".625"/></mask><radialGradient id="e" cx="90.20755" cy="264.08795" gradientTransform="matrix(.94132 .337514 -.98599 2.749907 261.7786 -483.4282)" gradientUnits="userSpaceOnUse" r="32.989033" spreadMethod="reflect" xlink:href="#b"/><radialGradient id="f" cx="148.51024" cy="189.07526" gradientTransform="matrix(1.460496 .29257 -.660658 3.297986 54.61396 -468.7349)" gradientUnits="userSpaceOnUse" r="28.557117" xlink:href="#b"/><radialGradient id="g" cx="190.25296" cy="133.78008" gradientTransform="matrix(.801714 .814186 -2.863742 2.819885 451.7457 -410.501)" gradientUnits="userSpaceOnUse" r="42.904423" xlink:href="#b"/><radialGradient id="h" cx="318.53406" cy="70.835747" gradientTransform="matrix(-.242293 -.409266 1.629153 -.964487 238.4446 289.0525)" gradientUnits="userSpaceOnUse" r="66.834991" xlink:href="#a"/><radialGradient id="i" cx="224.14607" cy="109.50309" gradientTransform="matrix(1.193173 -1.217808 .320792 .314302 -94.0463 401.4048)" gradientUnits="userSpaceOnUse" r="70.887459" xlink:href="#a"/><radialGradient id="j" cx="282.98776" cy="40.732708" gradientTransform="matrix(.681974 -.406566 .09517416 .159645 98.53223 182.9053)" gradientUnits="userSpaceOnUse" r="110.10155" xlink:href="#a"/><radialGradient id="k" cx="119.7226" cy="269.64893" gradientTransform="matrix(1.44987 -.950029 .291847 .445398 -146.5661 258.3893)" gradientUnits="userSpaceOnUse" r="71.064232" xlink:href="#b"/><radialGradient id="l" cx="196.33719" cy="186.43681" gradientTransform="matrix(1.836943 -1.772508 .572807 .593626 -274.3391 424.107)" gradientUnits="userSpaceOnUse" r="57.805977" xlink:href="#b"/><g transform="matrix(.804235 0 0 .804235 12.64606 4.27598)"><path d="m58.75 323c52.74374-25.35972 85.01705-51.53157 106.5-76.75-23.16208-16.57016-16.35679-15.27745 4.5-7.25 9.81312 3.77692 26.75 4 45.75-28 14.58614-24.56613 27.5-35 27.5-35-16.42037 1.83647-45.03297-3.33251 4.25-8.625 21.18972-26.02629 47.60573-48.5684 72.5-72.125-48.10097 19.60374-30.94199-1.276363 8.875-7.625001 26.56651-36.341988 75.36969-55.870888 129-71.75-37.0127 1.310703-77.56038-.163738-93.5 17.75l.25-8.625c-35.96429 8.944797-120.91456 39.797852-123.25159 46.533289-1.79531 5.174178-7.70271 16.731254-10.69499 27.665553-.9295-6.637109-.72035-13.957413.70711-22.008699-25.08201 11.376989-71.42469 46.024148-73.45072 54.270448-1.17198 4.77015-4.21779 41.11625-1.59099 57.27565-8.65822-13.41931-9.85144-30.2318-11.38693-46.88872-8.81853 8.95956-45.050082 23.53873-38.28732 93.91132-7.491138-8.30429-6.00329-21.59691-8.131727-32.88047-24.012263 30.60598-45.193745 75.98902-44.287843 121.12163" fill="#fff" fill-rule="evenodd"/><g fill-rule="evenodd" mask="url(#d)"><path d="m102.53048 182.72583c-4.949744 50.20458 9.19239 66.46804 9.19239 66.46804-25.119325 26.93727-43.097828 58.63508-62.932502 89.09545-8.48529-49.96888 9.428095-101.82338 53.740112-155.56349z" fill="url(#e)"/><path d="m158.39192 199.69639c-6.92924-26.39865-7.72855-52.79731-11.31371-79.19596-37.98215 32.9364-55.96579 68.89908-37.47666 131.52186 15.69081-17.44197 31.27058-34.88393 48.79037-52.3259z" fill="url(#f)"/><path d="m156.97771 201.81771c-12.30572-72.21412-6.79606-106.441117 79.90306-136.471606-6.79318 26.016224-8.15081 43.551006-4.24264 65.053826-26.37476 22.65131-51.14792 46.90421-75.66042 71.41778z" fill="url(#g)"/><path d="m226.27417 133.93546c-6.67655-94.654604 63.61374-102.956179 132.22897-113.137083-49.67228 44.240975-93.87013 82.095123-132.22897 113.137083z" fill="url(#h)"/><path d="m185.61553 174.24055c101.78785 4.91483 81.87624-19.40932 141.77491-82.024388-32.95043 11.728018-47.7014 10.716418-62.2254 9.545938-27.23449 24.15948-54.17926 48.31897-79.54951 72.47845z" fill="url(#i)"/><path d="m260.21529 108.47962c80.89008-18.49008 155.80851-32.256023 219.20311-98.9949518-40.92301-1.2549578-81.57988-8.3649996-123.39013 9.8994958z" fill="url(#j)"/><path d="m135.7645 226.56645c15.74523 8.54824 38.23024 19.34308 48.79037 26.16295-71.57484 72.85151-93.917871 66.41403-138.592929 90.50967 32.90121-48.33008 53.689043-80.87652 89.802559-116.67262z" fill="url(#k)"/><path d="m135.0574 226.21289c58.99223 33.62186 76.60965 33.61067 116.11195-52.65432-33.10166-8.6576-26.69474 11.76069-71.89015 10.32178-14.08453 12.07871-30.77968 30.50049-44.2218 42.33254z" fill="url(#l)"/></g><path d="m58.75 323c52.74374-25.35972 85.01705-51.53157 106.5-76.75-23.16208-16.57016-16.35679-15.27745 4.5-7.25 9.81312 3.77692 26.75 4 45.75-28 14.58614-24.56613 27.5-35 27.5-35-16.42037 1.83647-45.03297-3.33251 4.25-8.625 21.18972-26.02629 47.60573-48.5684 72.5-72.125-48.10097 19.60374-30.94199-1.276363 8.875-7.625001 26.56651-36.341988 75.36969-55.870888 129-71.75-37.0127 1.310703-77.56038-.163738-93.5 17.75l.25-8.625c-35.96429 8.944797-120.91456 39.797852-123.25159 46.533289-1.79531 5.174178-7.70271 16.731254-10.69499 27.665553-.9295-6.637109-.72035-13.957413.70711-22.008699-25.08201 11.376989-71.42469 46.024148-73.45072 54.270448-1.17198 4.77015-4.21779 41.11625-1.59099 57.27565-8.65822-13.41931-9.85144-30.2318-11.38693-46.88872-8.81853 8.95956-45.050082 23.53873-38.28732 93.91132-7.491138-8.30429-6.00329-21.59691-8.131727-32.88047-24.012263 30.60598-45.193745 75.98902-44.287843 121.12163" fill="none" stroke="#000" stroke-linejoin="round" stroke-width="1.875"/><g fill-rule="evenodd"><path d="m281.5 87.25c-118.3827 94.20514-216.517107 193.74684-269.8125 304.5h3.3125s6.5-9.5 11.25-13.5 19.25-13.75 19.25-13.75 12.482756-37.87794 38.292154-74.64749c25.809396-36.76956 61.871846-71.77134 69.296466-79.54952 7.42462-7.77817 23.03638-24.55299 23.03638-24.55299" fill="#c7a272" stroke="#000" stroke-linecap="round" stroke-linejoin="round" stroke-width="1.875"/><path d="m20.5 356 30 21.5-64 37.5" mask="url(#c)"/></g></g></svg>